<svg width="150" height="150" viewBox="0 0 150 150" fill="none" xmlns="http://www.w3.org/2000/svg">
<path d="M35 40C26.73 40 20 33.27 20 25C20 16.73 26.73 10 35 10C43.27 10 50 16.73 50 25C50 33.27 43.27 40 35 40ZM35 15C29.485 15 25 19.485 25 25C25 30.515 29.485 35 35 35C40.515 35 45 30.515 45 25C45 19.485 40.515 15 35 15Z" fill="#2A2A2A"/>
<path d="M22.5 150C21.12 150 20 148.88 20 147.5V122.5C20 121.12 21.12 120 22.5 120C23.88 120 25 121.12 25 122.5V147.5C25 148.88 23.88 150 22.5 150Z" fill="#2A2A2A"/>
<path d="M12.5 100C11.12 100 10 98.88 10 97.5V62.5C10 54.41 16.555 45 25 45H47.5C48.88 45 50 46.12 50 47.5C50 48.88 48.88 50 47.5 50H25C19.615 50 15 56.875 15 62.5V97.5C15 98.88 13.88 100 12.5 100Z" fill="#2A2A2A"/>
<path d="M20 115H5C2.245 115 0 112.76 0 110V100C0 97.24 2.245 95 5 95H20C22.755 95 25 97.24 25 100V110C25 112.76 22.755 115 20 115ZM5 100V110H20V100H5Z" fill="#2A2A2A"/>
<path d="M125 40C116.73 40 110 33.27 110 25C110 16.73 116.73 10 125 10C133.27 10 140 16.73 140 25C140 33.27 133.27 40 125 40ZM125 15C119.485 15 115 19.485 115 25C115 30.515 119.485 35 125 35C130.515 35 135 30.515 135 25C135 19.485 130.515 15 125 15Z" fill="#2A2A2A"/>
<path d="M142.5 150C141.12 150 140 148.88 140 147.5V97.5C140 96.12 141.12 95 142.5 95C143.88 95 145 93.875 145 92.5V62.5C145 56.875 140.385 50 135 50H112.5C111.12 50 110 48.88 110 47.5C110 46.12 111.12 45 112.5 45H135C143.445 45 150 54.41 150 62.5V92.5C150 95.76 147.91 98.54 145 99.57V147.5C145 148.88 143.88 150 142.5 150Z" fill="#2A2A2A"/>
<path d="M115 115H107.5C106.12 115 105 113.88 105 112.5C105 111.12 106.12 110 107.5 110H115V100H107.5C106.12 100 105 98.88 105 97.5C105 96.12 106.12 95 107.5 95H115C117.755 95 120 97.24 120 100V110C120 112.76 117.755 115 115 115Z" fill="#2A2A2A"/>
<path d="M80 30C71.73 30 65 23.27 65 15C65 6.73 71.73 0 80 0C88.27 0 95 6.73 95 15C95 23.27 88.27 30 80 30ZM80 5C74.485 5 70 9.485 70 15C70 20.515 74.485 25 80 25C85.515 25 90 20.515 90 15C90 9.485 85.515 5 80 5Z" fill="#2A2A2A"/>
<path d="M127.5 150C126.12 150 125 148.88 125 147.5V112.5C125 111.12 126.12 110 127.5 110C128.88 110 130 111.12 130 112.5V147.5C130 148.88 128.88 150 127.5 150Z" fill="#2A2A2A"/>
<path d="M37.5 150C36.12 150 35 148.88 35 147.5V112.5C35 111.12 36.12 110 37.5 110C38.88 110 40 111.12 40 112.5V147.5C40 148.88 38.88 150 37.5 150Z" fill="#2A2A2A"/>
<path d="M67.5 150C66.12 150 65 148.88 65 147.5V117.5C65 116.12 66.12 115 67.5 115C68.88 115 70 116.12 70 117.5V147.5C70 148.88 68.88 150 67.5 150Z" fill="#2A2A2A"/>
<path d="M97.5 150C96.12 150 95 148.88 95 147.5V92.5C95 91.12 96.12 90 97.5 90C98.88 90 100 88.875 100 87.5V52.5C100 46.875 95.385 40 90 40H70C64.615 40 59.685 46.93 59.43 52.605L57.5 92.62C57.435 93.995 56.17 95.11 54.885 94.995C53.505 94.93 52.44 93.76 52.505 92.38L54.44 52.37C54.805 44.175 61.545 35 70 35H90C98.445 35 105 44.41 105 52.5V87.5C105 90.76 102.91 93.54 100 94.57V147.5C100 148.88 98.88 150 97.5 150Z" fill="#2A2A2A"/>
<path d="M82.5 150C81.12 150 80 148.88 80 147.5V102.5C80 101.12 81.12 100 82.5 100C83.88 100 85 101.12 85 102.5V147.5C85 148.88 83.88 150 82.5 150Z" fill="#2A2A2A"/>
<path d="M65 110H50C47.245 110 45 107.76 45 105V95C45 92.24 47.245 90 50 90H65C67.755 90 70 92.24 70 95V105C70 107.76 67.755 110 65 110ZM50 95V105H64.995L65 95H50Z" fill="#2A2A2A"/>
</svg>
