<svg width="105" height="168" viewBox="0 0 105 168" fill="none" xmlns="http://www.w3.org/2000/svg">
<path d="M62.4031 117.343C59.7128 114.533 56.088 112.985 52.1961 112.985C48.3046 112.985 44.6794 114.533 41.9901 117.344C40.1503 119.266 38.5897 121.431 37.3511 123.778C36.6486 125.11 37.1588 126.758 38.4897 127.46C39.8212 128.162 41.4694 127.652 42.1716 126.322C43.1737 124.422 44.4373 122.669 45.9273 121.112C47.5791 119.386 49.8054 118.435 52.1958 118.435C54.5862 118.435 56.8125 119.386 58.4646 121.112C62.5971 125.43 64.8729 131.101 64.8729 137.08C64.8729 145.933 59.7217 158.025 52.1955 162.232C44.6696 158.025 39.5183 145.932 39.5183 137.08C39.5183 135.575 38.298 134.355 36.7933 134.355C35.2885 134.355 34.0682 135.575 34.0682 137.08C34.0682 142.764 35.7472 149.255 38.6747 154.889C41.8894 161.076 46.3 165.65 51.0946 167.768C51.4454 167.923 51.8204 168 52.1958 168C52.5712 168 52.9466 167.923 53.297 167.768C58.0916 165.649 62.5022 161.076 65.7169 154.889C68.6444 149.255 70.3234 142.764 70.3234 137.08C70.3238 129.69 67.5107 122.681 62.4031 117.343Z" fill="black"/>
<path d="M97.6741 73.5885C93.6371 66.4787 88.9249 61.8311 86.8869 60.0031C86.7393 53.1794 85.4087 45.7441 83.0144 38.4101C82.5471 36.9792 81.0082 36.1979 79.5783 36.6652C78.1473 37.1321 77.3667 38.671 77.8333 40.1013C80.2004 47.3512 81.4515 54.6704 81.4515 61.2664C81.4515 74.4397 76.4368 86.935 67.332 96.45C63.3429 100.618 57.9679 102.914 52.1968 102.914C46.4258 102.914 41.0504 100.619 37.0617 96.45C27.9565 86.935 22.9418 74.44 22.9418 61.2664C22.9418 50.767 26.0836 38.6979 31.562 28.1546C37.1014 17.4938 44.393 9.58365 52.1972 5.73244C60.1027 9.63254 67.4635 17.6769 73.0266 28.5332C73.7133 29.8726 75.3553 30.4022 76.6947 29.7155C78.0344 29.029 78.5634 27.3868 77.8769 26.0474C71.4877 13.5796 62.7589 4.41174 53.2977 0.232071C52.5962 -0.078008 51.7968 -0.078008 51.095 0.232071C41.748 4.3612 33.0934 13.3853 26.7251 25.6415C21.0738 36.5172 17.7532 48.9568 17.5143 59.9946C15.4809 61.8176 10.7611 66.4685 6.71861 73.5875C1.89615 82.0807 -2.82623 95.8282 2.06021 113.092C2.32698 114.035 3.07937 114.762 4.03094 114.996C4.24684 115.049 4.46537 115.075 4.68194 115.075C5.42055 115.075 6.13881 114.774 6.65988 114.224C6.80228 114.074 21.0439 99.287 36.7526 103.379C41.2125 106.615 46.5518 108.364 52.1962 108.364C57.8403 108.364 63.1795 106.615 67.6394 103.379C83.2897 99.3034 97.591 114.077 97.7318 114.224C98.2529 114.774 98.9711 115.075 99.7098 115.075C99.9266 115.075 100.145 115.049 100.361 114.996C101.312 114.762 102.064 114.035 102.331 113.092C107.219 95.8289 102.496 82.0814 97.6741 73.5885ZM13.2099 102.449C10.3953 104.07 8.03472 105.806 6.26842 107.249C4.20386 96.4858 5.9088 86.1485 11.356 76.4603C13.4931 72.6596 15.8704 69.6159 17.8276 67.4243C19.0194 78.3939 23.3805 88.7108 30.4578 97.2293C24.8407 97.3625 18.9948 99.1177 13.2099 102.449ZM98.1243 107.249C96.3579 105.806 93.9974 104.07 91.1828 102.449C85.3986 99.1177 79.5523 97.3625 73.9352 97.2296C81.0125 88.7112 85.3736 78.3942 86.5654 67.4247C88.5226 69.6159 90.8999 72.6599 93.037 76.4606C98.4839 86.1485 100.189 96.4858 98.1243 107.249Z" fill="black"/>
<path d="M34.0705 65V62.6H37.7105C38.7505 62.6 39.6305 62.3933 40.3505 61.98C41.0838 61.5533 41.6372 60.9733 42.0105 60.24C42.3972 59.5067 42.5905 58.6667 42.5905 57.72C42.5905 56.7867 42.4038 55.9667 42.0305 55.26C41.6572 54.5533 41.1038 54 40.3705 53.6C39.6505 53.2 38.7638 53 37.7105 53H34.1305V50.6H37.7105C39.3238 50.6 40.7305 50.8933 41.9305 51.48C43.1305 52.0533 44.0572 52.88 44.7105 53.96C45.3772 55.0267 45.7105 56.2933 45.7105 57.76C45.7105 59.2267 45.3772 60.5067 44.7105 61.6C44.0438 62.68 43.1105 63.52 41.9105 64.12C40.7238 64.7067 39.3305 65 37.7305 65H34.0705ZM32.1905 65V50.6H35.2705V65H32.1905ZM46.1897 65V62.92L54.1497 51.82L54.8897 52.96H46.4697V50.6H57.2897V52.68L49.4497 63.64L48.7497 62.64H57.3697V65H46.1897ZM60.965 65V62.6H64.605C65.645 62.6 66.525 62.3933 67.245 61.98C67.9784 61.5533 68.5317 60.9733 68.905 60.24C69.2917 59.5067 69.485 58.6667 69.485 57.72C69.485 56.7867 69.2984 55.9667 68.925 55.26C68.5517 54.5533 67.9984 54 67.265 53.6C66.545 53.2 65.6584 53 64.605 53H61.025V50.6H64.605C66.2184 50.6 67.625 50.8933 68.825 51.48C70.025 52.0533 70.9517 52.88 71.605 53.96C72.2717 55.0267 72.605 56.2933 72.605 57.76C72.605 59.2267 72.2717 60.5067 71.605 61.6C70.9384 62.68 70.005 63.52 68.805 64.12C67.6184 64.7067 66.225 65 64.625 65H60.965ZM59.085 65V50.6H62.165V65H59.085Z" fill="black"/>
</svg>
