<svg width="1080" height="1080" viewBox="0 0 1080 1080" fill="none" xmlns="http://www.w3.org/2000/svg">
<path d="M174.029 773.866C119.397 773.866 80.0294 758.159 55.9268 726.745C31.8243 695.331 19.773 647.807 19.773 584.172C19.773 554.369 22.1833 522.149 27.0038 487.513C32.6277 452.877 41.0636 418.643 52.3114 384.813C63.5593 350.176 77.6191 317.151 94.4909 285.737C112.166 253.517 132.653 225.325 155.952 201.16C180.055 176.995 206.969 157.663 236.696 143.164C267.226 128.665 301.371 121.416 339.132 121.416C356.004 121.416 372.875 123.43 389.747 127.457C407.422 130.679 423.491 137.123 437.952 146.789C452.414 155.649 464.063 167.732 472.901 183.036C482.542 198.341 487.362 217.673 487.362 241.032C487.362 264.391 481.738 287.348 470.491 309.902C460.046 332.456 441.568 352.996 415.055 371.522C388.542 390.048 352.79 405.755 307.798 418.643C263.61 431.531 208.175 440.392 141.491 445.225C135.867 470.195 130.645 496.374 125.824 523.76C121.807 550.342 119.799 574.909 119.799 597.463C119.799 631.294 126.226 657.875 139.081 677.207C152.739 695.733 174.029 704.997 202.952 704.997C239.106 704.997 273.653 689.692 306.593 659.083C340.337 628.475 372.474 585.783 403.003 531.01L440.362 549.133C420.277 587.797 400.593 621.628 381.311 650.626C362.029 678.818 341.542 702.177 319.85 720.704C298.961 738.425 276.465 751.715 252.363 760.576C229.063 769.436 202.952 773.866 174.029 773.866ZM149.927 407.769C235.089 398.103 296.952 380.785 335.516 355.815C374.884 330.845 394.568 295.403 394.568 249.49C394.568 226.936 389.345 208.409 378.901 193.91C369.26 178.606 350.781 170.954 323.465 170.954C305.79 170.954 288.918 174.981 272.85 183.036C256.781 190.286 241.516 203.174 227.055 221.7C212.593 240.226 198.935 264.794 186.081 295.403C173.226 325.206 161.175 362.662 149.927 407.769Z" fill="white"/>
<path d="M323.291 937.434H409.131L594.11 192.731H508.27L520.36 143.164H884.273C942.306 143.164 987.442 157.269 1019.68 185.477C1051.92 212.88 1068.04 251.968 1068.04 302.744C1068.04 316.445 1066.43 333.37 1063.21 353.519C1060.79 372.862 1055.55 393.414 1047.49 415.174C1040.24 436.935 1029.76 458.696 1016.06 480.457C1003.16 501.412 985.83 520.755 964.068 538.486C943.112 555.411 917.319 569.112 886.691 579.589C856.869 590.067 821.404 595.306 780.298 595.306H597.737L511.897 937.434H621.917L609.827 987H311.201L323.291 937.434ZM611.036 540.904H782.716C823.822 540.904 858.884 527.605 887.9 501.009C917.722 473.606 937.873 439.353 948.351 398.249C950.769 387.772 954.396 372.459 959.232 352.31C964.874 331.355 967.695 312.818 967.695 296.699C967.695 267.684 959.635 243.909 943.515 225.372C928.201 206.835 904.02 197.566 870.974 197.566H695.667L611.036 540.904Z" fill="white"/>
</svg>
